<svg xmlns="http://www.w3.org/2000/svg" width="240" height="240" viewBox="0 0 240 240" role="img" aria-label="GCash QR placeholder">
  <defs>
    <linearGradient id="g" x1="0%" y1="0%" x2="100%" y2="100%">
      <stop offset="0%" style="stop-color:#007cff"/>
      <stop offset="100%" style="stop-color:#005bb5"/>
    </linearGradient>
  </defs>
  <rect width="240" height="240" rx="16" fill="#f8fafc"/>
  <rect x="16" y="16" width="208" height="208" rx="12" fill="#fff" stroke="#e5e7eb" stroke-width="2"/>
  <rect x="40" y="40" width="56" height="56" rx="4" fill="#1f2937"/>
  <rect x="144" y="40" width="56" height="56" rx="4" fill="#1f2937"/>
  <rect x="40" y="144" width="56" height="56" rx="4" fill="#1f2937"/>
  <g fill="#1f2937" opacity="0.9">
    <rect x="108" y="40" width="12" height="12" rx="1"/>
    <rect x="124" y="40" width="12" height="12" rx="1"/>
    <rect x="108" y="56" width="12" height="12" rx="1"/>
    <rect x="108" y="108" width="12" height="12" rx="1"/>
    <rect x="124" y="108" width="12" height="12" rx="1"/>
    <rect x="172" y="108" width="12" height="12" rx="1"/>
    <rect x="108" y="124" width="12" height="12" rx="1"/>
    <rect x="140" y="124" width="12" height="12" rx="1"/>
    <rect x="172" y="124" width="12" height="12" rx="1"/>
    <rect x="108" y="140" width="12" height="12" rx="1"/>
    <rect x="124" y="140" width="12" height="12" rx="1"/>
    <rect x="156" y="140" width="12" height="12" rx="1"/>
    <rect x="172" y="140" width="12" height="12" rx="1"/>
    <rect x="124" y="156" width="12" height="12" rx="1"/>
    <rect x="140" y="156" width="12" height="12" rx="1"/>
    <rect x="172" y="156" width="12" height="12" rx="1"/>
    <rect x="108" y="172" width="12" height="12" rx="1"/>
    <rect x="140" y="172" width="12" height="12" rx="1"/>
    <rect x="156" y="172" width="12" height="12" rx="1"/>
  </g>
  <text x="120" y="222" text-anchor="middle" fill="#64748b" font-family="system-ui,sans-serif" font-size="11" font-weight="600">GCash QR (placeholder)</text>
</svg>
